#N canvas 0 22 450 300 10;
#X obj 277 18 loadbang;
#X obj 271 171 snapshot~;
#X obj 288 145 metro 50;
#X obj 289 122 tgl 15 0 empty empty empty 17 7 0 10 -262144 -1 -1 1
1;
#X obj 85 16 inlet;
#X obj 271 262 outlet;
#X floatatom 292 202 5 0 0 0 - - -;
#X obj 85 87 -~ 0.5;
#X obj 109 122 clip~ -0.5 0;
#X obj 109 149 *~ -2;
#X obj 85 177 +~;
#X obj 85 224 *~ 4;
#X obj 85 200 -~ 0.25;
#X obj 85 59 phasor~ 0.2;
#X obj 85 247 +~ 1;
#X obj 85 268 *~ 0.5;
#X connect 0 0 3 0;
#X connect 1 0 5 0;
#X connect 1 0 6 0;
#X connect 2 0 1 0;
#X connect 3 0 2 0;
#X connect 4 0 13 0;
#X connect 7 0 8 0;
#X connect 7 0 10 0;
#X connect 8 0 9 0;
#X connect 9 0 10 1;
#X connect 10 0 12 0;
#X connect 11 0 14 0;
#X connect 12 0 11 0;
#X connect 13 0 7 0;
#X connect 14 0 15 0;
#X connect 15 0 1 0;
