#N canvas 0 22 552 335 10;
#X obj 101 146 *~;
#X obj 148 91 line~;
#X obj 149 47 inlet;
#X text 146 22 Control signal in e.g Fader;
#X obj 39 47 inlet~;
#X text 2 14 Audio signal in;
#X text 163 177 Output;
#X obj 102 173 outlet~;
#X text 204 48 line~ creates an audio ramp;
#X text 205 65 the message \$1 40 is an argument that;
#X text 203 82 tells line to ramp to ... in 40ms;
#X text 200 96 using line~ removes zipper noise from a signal;
#X text 201 113 that is being controlled by a fader or number box;
#X msg 148 71 \$1 80;
#X connect 0 0 7 0;
#X connect 1 0 0 1;
#X connect 2 0 13 0;
#X connect 4 0 0 0;
#X connect 13 0 1 0;
