#N canvas 244 198 432 504 10;
#X text 12 16 STEREO PANNER;
#X text 55 129 g_L = sqrt(2)/2 * (cos(phi) + sin(phi));
#X text 55 145 g_R = sqrt(2)/2 * (cos(phi) - sin(phi));
#X text 12 166 where phi is from -45 to 45 degree !;
#X text 10 95 This is a standard stereo panner \, which implements
the tangent law \, as described in the DAFX book:;
#X obj 15 207 inlet~ signal;
#X obj 261 218 inlet panorama;
#X obj 15 451 outlet~ left;
#X obj 189 453 outlet~ right;
#X text 264 200 0 ... 1;
#N canvas 740 380 542 458 panner-work 0;
#X obj 153 88 expr ($f1*$f2/2)-$f2/4;
#X obj 302 64 f 3.14159;
#X text 369 65 pi;
#X obj 302 40 loadbang;
#X obj 153 62 clip 0 1;
#X obj 153 142 expr (cos($f1)+sin($f1))*(sqrt(2)/2);
#X obj 261 168 expr (cos($f1)-sin($f1))*(sqrt(2)/2);
#X text 186 114 angle;
#X obj 153 33 inlet;
#X obj 153 291 line~;
#X obj 261 293 line~;
#X obj 27 387 outlet~;
#X obj 138 409 outlet~;
#X obj 27 33 inlet~;
#X obj 27 353 *~;
#X obj 138 381 *~;
#N canvas 236 434 450 300 init_interpolation_time 0;
#X obj 98 82 f \$1;
#X obj 98 52 loadbang;
#X obj 98 112 sel 0;
#X obj 98 190 outlet;
#X msg 98 144 200;
#X connect 0 0 2 0;
#X connect 1 0 0 0;
#X connect 2 0 4 0;
#X connect 2 1 3 0;
#X connect 4 0 3 0;
#X restore 244 224 pd init_interpolation_time;
#X obj 153 270 pack 0 200;
#X obj 261 271 pack 0 200;
#X text 162 166 right;
#X text 270 190 left;
#X connect 0 0 5 0;
#X connect 0 0 6 0;
#X connect 1 0 0 1;
#X connect 3 0 1 0;
#X connect 4 0 0 0;
#X connect 5 0 17 0;
#X connect 6 0 18 0;
#X connect 8 0 4 0;
#X connect 9 0 15 1;
#X connect 10 0 14 1;
#X connect 13 0 14 0;
#X connect 13 0 15 0;
#X connect 14 0 11 0;
#X connect 15 0 12 0;
#X connect 16 0 17 1;
#X connect 16 0 18 1;
#X connect 17 0 9 0;
#X connect 18 0 10 0;
#X restore 16 391 pd panner-work;
#X obj 105 294 hsl 75 12 0 1 0 0 empty empty empty -2 -8 0 10 -204800
-1 -1 548 1;
#X msg 102 258 0.5;
#X obj 102 237 loadbang;
#X text 11 53 Argument1: interpolation time (standard: 200ms);
#X connect 5 0 10 0;
#X connect 6 0 11 0;
#X connect 10 0 7 0;
#X connect 10 1 8 0;
#X connect 11 0 10 1;
#X connect 12 0 11 0;
#X connect 13 0 12 0;
#X coords 0 -1 1 1 84 28 1 100 280;
