#N canvas 650 144 526 501 10;
#X obj 163 123 lightnoise_grain;
#X obj 139 187 output~ 1;
#X obj 216 187 output~ 2;
#X obj 138 153 *~ 0.5;
#X obj 193 153 *~ 0.5;
#X obj 243 154 *~ 0.5;
#X obj 295 153 *~ 0.5;
#X connect 0 0 3 0;
#X connect 0 1 4 0;
#X connect 0 2 5 0;
#X connect 0 3 6 0;
#X connect 3 0 1 0;
#X connect 4 0 2 0;
#X connect 5 0 1 0;
#X connect 6 0 2 0;
